<svg width="60" height="60" viewBox="0 0 60 60" fill="none" xmlns="http://www.w3.org/2000/svg">
<g clip-path="url(#clip0_189_76)">
<path d="M47.2742 49.3563C47.2742 52.5727 39.8234 55.1643 30.6371 55.1643C21.4508 55.1643 14 52.5495 14 49.3563C14 46.14 21.4508 43.5484 30.6371 43.5484C39.8234 43.5484 47.2742 46.14 47.2742 49.3563Z" fill="#9EDCF2"/>
<mask id="mask0_189_76" style="mask-type:luminance" maskUnits="userSpaceOnUse" x="21" y="48" width="19" height="17">
<path d="M23.2864 60.6612C23.6566 62.3966 24.559 63.4147 25.4614 64.0164H34.9717C36.1286 63.2296 37.3087 61.7487 37.3087 58.972V51.7988C37.3087 51.7988 37.4476 50.0171 39.0904 49.4386C39.0904 49.4386 40.0391 48.7676 39.021 48.3974C39.021 48.3974 34.5089 48.0272 34.5089 51.7294V57.1903C34.5089 57.1903 34.694 59.2034 33.6296 60.0364V53.2798C33.6296 53.2798 33.699 51.1278 34.8097 50.3179C34.8097 50.3179 35.5501 48.999 33.9304 49.3461C33.9304 49.3461 30.8297 49.7857 30.6909 53.4186L30.6215 60.3604H29.881L29.8116 53.4186C29.6728 49.8089 26.5721 49.3461 26.5721 49.3461C24.9524 48.9759 25.6928 50.3179 25.6928 50.3179C26.8035 51.1278 26.8729 53.2798 26.8729 53.2798V60.1058C25.8085 59.3422 25.9936 57.1903 25.9936 57.1903V51.7294C25.9936 48.0272 21.4815 48.3974 21.4815 48.3974C20.4402 48.7676 21.4121 49.4386 21.4121 49.4386C23.0318 50.0403 23.1938 51.7988 23.1938 51.7988V56.8201L23.2864 60.6612Z" fill="white"/>
</mask>
<g mask="url(#mask0_189_76)">
<path d="M47.073 50.2485C47.073 53.4649 39.6222 56.0565 30.4359 56.0565C21.2497 56.0565 13.7988 53.4417 13.7988 50.2485C13.7988 47.0322 21.2497 44.4406 30.4359 44.4406C39.6222 44.4406 47.073 47.0322 47.073 50.2485Z" fill="#7DBCE7"/>
</g>
<path d="M11.2342 29.1323L10.7483 30.7983C10.7483 30.7983 10.6326 31.3999 11.1879 31.5156C11.7896 31.4925 11.7433 30.9371 11.697 30.7752L11.2342 29.1323Z" fill="#9EDCF2"/>
<path d="M60.1901 25.9847L60.2364 25.7765C55.354 24.8046 50.356 24.7815 47.3247 24.9203C47.8106 23.1386 47.9726 21.0561 47.9726 18.7653C47.9726 15.4564 46.7231 12.8185 44.7331 10.8286C45.0802 9.69473 45.543 7.17256 44.2703 3.9562C44.2703 3.9562 42.0027 3.23889 36.8427 6.68663C34.8295 6.17757 32.6776 5.92304 30.5256 5.92304C28.1654 5.92304 25.7821 6.22385 23.5376 6.82547C18.2156 3.19261 15.8785 3.93307 15.8785 3.93307C14.3513 7.75104 15.3 10.5972 15.5777 11.2913C13.7728 13.235 12.6853 15.7109 12.6853 18.7422C12.6853 21.0329 12.9398 23.0923 13.5877 24.8741C10.5334 24.7584 5.7204 24.8046 1 25.7533L1.04628 25.9616C5.76668 25.0129 10.6259 24.9898 13.6572 25.1055C13.796 25.4757 13.958 25.8459 14.1199 26.193C11.1118 26.2856 5.99807 26.6789 1.09256 28.0673L1.16197 28.2755C6.11377 26.8872 11.2738 26.5169 14.2588 26.4244C16.0636 29.7564 19.5808 31.9315 25.8747 32.6026C24.9722 33.2042 24.0698 34.2223 23.6996 35.9577C22.4732 36.5362 18.6321 37.9709 16.3182 33.9909C16.3182 33.9909 15.0224 31.6307 12.5465 31.4456C12.5465 31.4456 10.14 31.3993 12.3845 32.9496C12.3845 32.9496 13.9811 33.7132 15.0918 36.5594C15.0918 36.5594 16.5496 41.4186 23.5145 39.8451V44.8201C23.5145 44.8201 23.3756 46.6018 21.7327 47.1803C21.7327 47.1803 20.7609 47.8513 21.8022 48.2215C21.8022 48.2215 26.3143 48.5918 26.3143 44.8895V39.4286C26.3143 39.4286 26.1292 37.2535 27.1936 36.5131V45.4911C27.1936 45.4911 27.1242 47.6431 26.0135 48.4529C26.0135 48.4529 25.273 49.7719 26.8928 49.4248C26.8928 49.4248 29.9934 48.9851 30.1323 45.3523L30.2017 36.2586H30.9422L31.0116 45.3523C31.1504 48.962 34.2511 49.4248 34.2511 49.4248C35.8708 49.795 35.1304 48.4529 35.1304 48.4529C34.0197 47.6431 33.9502 45.4911 33.9502 45.4911V36.5825C35.0147 37.4155 34.8295 39.4286 34.8295 39.4286V44.8895C34.8295 48.5918 39.3417 48.2215 39.3417 48.2215C40.383 47.8513 39.4111 47.1803 39.4111 47.1803C37.7914 46.5786 37.6294 44.8201 37.6294 44.8201V37.6469C37.6294 34.8471 36.4493 33.3662 35.2923 32.6026C42.0027 31.9315 45.219 29.7796 46.7 26.4012C49.6386 26.4707 54.9375 26.8409 59.9819 28.2755L60.0513 28.0673C55.0301 26.6558 49.7775 26.2856 46.7925 26.193C46.9314 25.8459 47.0471 25.4988 47.1627 25.1286C50.2634 25.0129 55.2846 25.0129 60.1901 25.9847Z" fill="#02066B"/>
<path d="M41.4012 18.6032C42.8358 19.9221 43.692 21.4956 43.692 23.1848C43.692 31.1447 37.7683 31.3529 30.4563 31.3529C23.1443 31.3529 17.2207 30.2422 17.2207 23.1848C17.2207 21.4956 18.0537 19.9221 19.4883 18.6264C21.8717 16.4513 25.8979 17.6082 30.4563 17.6082C35.0148 17.6082 39.0178 16.4281 41.4012 18.6032Z" fill="#F5CCB3"/>
<path d="M26.0599 23.6013C26.0599 25.7995 24.8335 27.5581 23.3063 27.5581C21.7791 27.5581 20.5527 25.7764 20.5527 23.6013C20.5527 21.4031 21.7791 19.6445 23.3063 19.6445C24.8335 19.6213 26.0599 21.4031 26.0599 23.6013Z" fill="white"/>
<path d="M25.1804 23.6476C25.1804 25.1053 24.3474 26.2854 23.3524 26.2854C22.3343 26.2854 21.5244 25.1053 21.5244 23.6476C21.5244 22.1898 22.3574 21.0097 23.3524 21.0097C24.3474 21.0097 25.1804 22.1898 25.1804 23.6476Z" fill="#AF5C51"/>
<path d="M40.846 23.6013C40.846 25.7995 39.6196 27.5581 38.0924 27.5581C36.5652 27.5581 35.3389 25.7764 35.3389 23.6013C35.3389 21.4031 36.5652 19.6445 38.0924 19.6445C39.5965 19.6213 40.846 21.4031 40.846 23.6013Z" fill="white"/>
<path d="M39.9431 23.6476C39.9431 25.1053 39.1101 26.2854 38.1151 26.2854C37.097 26.2854 36.2871 25.1053 36.2871 23.6476C36.2871 22.1898 37.1201 21.0097 38.1151 21.0097C39.1332 21.0097 39.9431 22.1898 39.9431 23.6476Z" fill="#AF5C51"/>
<path d="M31.1969 27.1184C31.1969 27.4887 30.8961 27.8126 30.5028 27.8126C30.1325 27.8126 29.8086 27.5118 29.8086 27.1184C29.8086 26.7251 30.1094 26.4243 30.5028 26.4243C30.873 26.4243 31.1969 26.7251 31.1969 27.1184Z" fill="#AF5C51"/>
<path d="M28.9061 28.8539C28.8598 28.7382 28.9292 28.6225 29.0449 28.5762C29.1606 28.5299 29.2763 28.5994 29.3226 28.7151C29.5077 29.2241 29.9705 29.5481 30.5027 29.5481C31.0349 29.5481 31.4977 29.201 31.6828 28.7151C31.7291 28.5994 31.8448 28.5299 31.9605 28.5762C32.0762 28.6225 32.1456 28.7382 32.0993 28.8539C31.8679 29.5249 31.22 29.9877 30.5027 29.9877C29.7854 29.9877 29.1375 29.5249 28.9061 28.8539Z" fill="#AF5C51"/>
<path d="M12.9924 28.1373C12.9924 28.3224 12.7841 28.4612 12.5064 28.4612C12.2519 28.4612 12.0205 28.3224 12.0205 28.1373C12.0205 27.9522 12.2288 27.8133 12.5064 27.8133C12.7841 27.8133 12.9924 27.9522 12.9924 28.1373Z" fill="#C4E5D9"/>
<path d="M14.3351 28.8777C14.3351 29.0629 14.1269 29.2017 13.8492 29.2017C13.5947 29.2017 13.3633 29.0629 13.3633 28.8777C13.3633 28.6926 13.5715 28.5538 13.8492 28.5538C14.1269 28.5538 14.3351 28.6926 14.3351 28.8777Z" fill="#C4E5D9"/>
<path d="M15.1447 29.8496C15.1447 30.0347 14.9364 30.1735 14.6588 30.1735C14.4042 30.1735 14.1729 30.0347 14.1729 29.8496C14.1729 29.6645 14.3811 29.5256 14.6588 29.5256C14.9364 29.5025 15.1447 29.6645 15.1447 29.8496Z" fill="#C4E5D9"/>
<path d="M15.8849 30.9603C15.8849 31.1454 15.6767 31.2842 15.399 31.2842C15.1445 31.2842 14.9131 31.1454 14.9131 30.9603C14.9131 30.7752 15.1213 30.6363 15.399 30.6363C15.6767 30.6132 15.8849 30.7752 15.8849 30.9603Z" fill="#C4E5D9"/>
<path d="M16.6945 31.9784C16.6945 32.1635 16.4863 32.3024 16.2086 32.3024C15.954 32.3024 15.7227 32.1635 15.7227 31.9784C15.7227 31.7933 15.9309 31.6545 16.2086 31.6545C16.4863 31.6545 16.6945 31.7933 16.6945 31.9784Z" fill="#C4E5D9"/>
<path d="M17.8058 32.8808C17.8058 33.0659 17.5976 33.2048 17.3199 33.2048C17.0654 33.2048 16.834 33.0659 16.834 32.8808C16.834 32.6957 17.0422 32.5569 17.3199 32.5569C17.5976 32.5337 17.8058 32.6957 17.8058 32.8808Z" fill="#C4E5D9"/>
<path d="M19.3556 33.4593C19.3556 33.6444 19.1474 33.7833 18.8697 33.7833C18.6152 33.7833 18.3838 33.6444 18.3838 33.4593C18.3838 33.2742 18.592 33.1354 18.8697 33.1354C19.1474 33.1354 19.3556 33.2742 19.3556 33.4593Z" fill="#C4E5D9"/>
<path d="M20.9064 33.4593C20.9064 33.6444 20.6982 33.7833 20.4205 33.7833C20.166 33.7833 19.9346 33.6444 19.9346 33.4593C19.9346 33.2742 20.1428 33.1354 20.4205 33.1354C20.6982 33.1354 20.9064 33.2742 20.9064 33.4593Z" fill="#C4E5D9"/>
<path d="M22.4797 33.2048C22.4797 33.3899 22.2714 33.5287 21.9937 33.5287C21.7392 33.5287 21.5078 33.3899 21.5078 33.2048C21.5078 33.0197 21.7161 32.8808 21.9937 32.8808C22.2483 32.8808 22.4797 33.0197 22.4797 33.2048Z" fill="#C4E5D9"/>
</g>
<rect x="0.5" y="0.5" width="59" height="59" rx="4.5" stroke="#00BAF4"/>
<defs>
<clipPath id="clip0_189_76">
<rect width="60" height="60" rx="5" fill="white"/>
</clipPath>
</defs>
</svg>
