<svg width="760" height="569" viewBox="0 0 760 569" fill="none" xmlns="http://www.w3.org/2000/svg">
<g filter="url(#filter0_d_132_4193)">
<path d="M166 252.131C166 250.243 167.063 248.516 168.748 247.666L324.478 169.114C325.869 168.412 327.508 168.399 328.911 169.078L491.111 247.686C492.835 248.522 493.93 250.269 493.93 252.186V368.767C493.93 370.662 492.859 372.394 491.164 373.241L328.965 454.23C327.533 454.945 325.845 454.931 324.425 454.193L168.694 373.26C167.039 372.399 166 370.689 166 368.823V252.131Z" fill="black"/>
</g>
<g filter="url(#filter1_d_132_4193)">
<path d="M225.552 339.13C224.925 338.4 224.019 337.847 222.832 337.472C221.678 337.076 220.31 336.878 218.728 336.878C215.991 336.878 213.799 337.451 212.151 338.598C210.503 339.724 209.678 341.235 209.678 343.132C209.678 345.155 210.535 346.739 212.25 347.886C213.997 349.011 216.387 349.574 219.42 349.574C221.497 349.574 223.244 349.241 224.661 348.574C226.112 347.907 227.167 346.948 227.826 345.697H217.096V341.756H235.491V346.729C234.864 348.063 233.793 349.303 232.277 350.45C230.793 351.597 228.898 352.524 226.59 353.233C224.282 353.942 221.678 354.296 218.777 354.296C215.349 354.296 212.283 353.827 209.579 352.889C206.909 351.93 204.816 350.606 203.299 348.918C201.816 347.229 201.074 345.301 201.074 343.132C201.074 340.964 201.816 339.036 203.299 337.347C204.816 335.638 206.909 334.314 209.579 333.376C212.25 332.417 215.299 331.937 218.728 331.937C222.881 331.937 226.376 332.573 229.211 333.845C232.079 335.116 233.974 336.878 234.897 339.13H225.552Z" fill="white"/>
<path d="M248.63 339.599C249.619 338.64 250.856 337.889 252.339 337.347C253.823 336.784 255.471 336.503 257.284 336.503V342.163H254.96C252.85 342.163 251.268 342.455 250.213 343.039C249.158 343.601 248.63 344.602 248.63 346.041V354.14H240.175V336.69H248.63V339.599Z" fill="white"/>
<path d="M259.644 345.384C259.644 343.591 260.172 342.017 261.227 340.662C262.315 339.307 263.782 338.264 265.628 337.535C267.474 336.805 269.534 336.44 271.809 336.44C273.754 336.44 275.452 336.69 276.902 337.191C278.386 337.691 279.523 338.348 280.314 339.161V336.69H288.77V354.14H280.314V351.67C279.49 352.483 278.336 353.139 276.853 353.64C275.402 354.14 273.704 354.39 271.759 354.39C269.518 354.39 267.474 354.025 265.628 353.296C263.782 352.545 262.315 351.492 261.227 350.137C260.172 348.761 259.644 347.177 259.644 345.384ZM280.314 345.415C280.314 344.081 279.721 343.028 278.534 342.257C277.38 341.485 275.963 341.1 274.281 341.1C272.6 341.1 271.166 341.485 269.979 342.257C268.825 343.007 268.249 344.05 268.249 345.384C268.249 346.718 268.825 347.781 269.979 348.574C271.166 349.345 272.6 349.731 274.281 349.731C275.963 349.731 277.38 349.345 278.534 348.574C279.721 347.802 280.314 346.749 280.314 345.415Z" fill="white"/>
<path d="M303.343 339.161C304.167 338.348 305.305 337.691 306.755 337.191C308.206 336.69 309.903 336.44 311.848 336.44C314.123 336.44 316.183 336.805 318.03 337.535C319.876 338.264 321.326 339.307 322.381 340.662C323.469 342.017 324.013 343.591 324.013 345.384C324.013 347.177 323.469 348.761 322.381 350.137C321.326 351.492 319.876 352.545 318.03 353.296C316.183 354.025 314.123 354.39 311.848 354.39C309.936 354.39 308.239 354.14 306.755 353.64C305.305 353.139 304.167 352.493 303.343 351.701V362.458H294.887V336.69H303.343V339.161ZM315.409 345.384C315.409 344.05 314.815 343.007 313.629 342.257C312.475 341.485 311.041 341.1 309.327 341.1C307.645 341.1 306.211 341.485 305.024 342.257C303.871 343.028 303.294 344.081 303.294 345.415C303.294 346.749 303.871 347.802 305.024 348.574C306.211 349.345 307.645 349.731 309.327 349.731C311.008 349.731 312.442 349.345 313.629 348.574C314.815 347.781 315.409 346.718 315.409 345.384Z" fill="white"/>
<path d="M345.41 336.503C348.575 336.503 351.113 337.17 353.025 338.504C354.937 339.818 355.893 341.631 355.893 343.945V354.14H347.487V344.665C347.487 343.497 347.009 342.59 346.053 341.944C345.097 341.298 343.811 340.975 342.196 340.975C340.581 340.975 339.295 341.298 338.339 341.944C337.383 342.59 336.905 343.497 336.905 344.665V354.14H328.449L326.959 322.892H336.905V339.036C337.762 338.264 338.932 337.649 340.416 337.191C341.899 336.732 343.564 336.503 345.41 336.503Z" fill="white"/>
<path d="M387.78 345.134C387.78 345.634 387.73 346.155 387.631 346.697H368.494C368.626 347.781 369.17 348.615 370.126 349.199C371.115 349.762 372.318 350.043 373.736 350.043C375.846 350.043 377.313 349.481 378.137 348.355H387.137C386.675 349.501 385.835 350.533 384.615 351.451C383.428 352.368 381.928 353.087 380.115 353.608C378.302 354.13 376.274 354.39 374.033 354.39C371.329 354.39 368.923 354.025 366.813 353.296C364.703 352.566 363.055 351.524 361.868 350.169C360.681 348.813 360.088 347.229 360.088 345.415C360.088 343.601 360.665 342.017 361.819 340.662C363.006 339.307 364.654 338.264 366.764 337.535C368.874 336.805 371.297 336.44 374.033 336.44C376.703 336.44 379.077 336.795 381.153 337.503C383.23 338.212 384.846 339.223 385.999 340.537C387.186 341.85 387.78 343.383 387.78 345.134ZM379.126 343.727C379.126 342.809 378.631 342.08 377.642 341.537C376.654 340.995 375.417 340.724 373.934 340.724C372.516 340.724 371.313 340.985 370.324 341.506C369.368 342.027 368.775 342.768 368.544 343.727H379.126Z" fill="white"/>
<path d="M409.053 336.503C412.284 336.503 414.855 337.17 416.767 338.504C418.712 339.818 419.685 341.631 419.685 343.945V354.14H411.278V344.665C411.278 343.497 410.8 342.59 409.844 341.944C408.888 341.298 407.603 340.975 405.987 340.975C404.372 340.975 403.086 341.298 402.13 341.944C401.174 342.59 400.696 343.497 400.696 344.665V354.14H392.24V336.69H400.696V339.004C401.553 338.233 402.707 337.629 404.158 337.191C405.608 336.732 407.24 336.503 409.053 336.503Z" fill="white"/>
<path d="M451.571 345.134C451.571 345.634 451.521 346.155 451.423 346.697H432.286C432.418 347.781 432.962 348.615 433.918 349.199C434.907 349.762 436.11 350.043 437.527 350.043C439.637 350.043 441.104 349.481 441.928 348.355H450.928C450.467 349.501 449.626 350.533 448.406 351.451C447.219 352.368 445.719 353.087 443.906 353.608C442.093 354.13 440.066 354.39 437.824 354.39C435.121 354.39 432.714 354.025 430.604 353.296C428.495 352.566 426.846 351.524 425.66 350.169C424.473 348.813 423.879 347.229 423.879 345.415C423.879 343.601 424.456 342.017 425.61 340.662C426.797 339.307 428.445 338.264 430.555 337.535C432.665 336.805 435.088 336.44 437.824 336.44C440.494 336.44 442.868 336.795 444.945 337.503C447.022 338.212 448.637 339.223 449.791 340.537C450.978 341.85 451.571 343.383 451.571 345.134ZM442.917 343.727C442.917 342.809 442.423 342.08 441.434 341.537C440.445 340.995 439.209 340.724 437.725 340.724C436.308 340.724 435.104 340.985 434.115 341.506C433.159 342.027 432.566 342.768 432.335 343.727H442.917Z" fill="white"/>
<path d="M335.976 310.059C333.866 313.774 332.213 317.452 331.128 321.065C333.404 296.513 343.813 264.956 359.191 239.494C367.884 225.101 378.145 212.689 389.386 204.595C400.621 196.506 412.804 192.748 425.39 195.579C431.733 197.006 434.779 199.335 435.589 202.238C436.411 205.185 435.02 208.991 431.764 213.591C425.28 222.753 411.846 234.46 396.729 247.471C396.088 248.022 395.444 248.577 394.797 249.133C380.227 261.667 364.367 275.311 351.956 288.909C345.474 296.012 339.919 303.116 335.976 310.059Z" fill="white" stroke="black"/>
<path d="M551.236 292.942C552.605 294.975 553.012 296.857 552.629 298.6C552.248 300.339 551.069 301.99 549.145 303.568C545.269 306.747 538.436 309.569 529.399 312.033C511.36 316.952 484.947 320.339 457.131 322.485C429.328 324.629 400.169 325.529 376.662 325.485C364.909 325.464 354.574 325.207 346.531 324.752C342.506 324.524 339.073 324.248 336.329 323.93C338.638 323.705 341.357 323.262 344.426 322.639C351.276 321.248 359.933 318.951 369.791 316.141C377.071 314.067 385.006 311.712 393.365 309.232C407.675 304.986 423.228 300.372 438.867 296.159C463.632 289.486 488.522 283.847 508.849 282.31C529.205 280.771 544.783 283.36 551.236 292.942ZM324.562 320.689C318.405 318.089 309.34 313.73 298.798 308.249C284.266 300.694 266.966 291.028 250.693 280.964C234.417 270.897 219.184 260.439 208.775 251.298C203.568 246.725 199.586 242.498 197.28 238.825C196.127 236.989 195.403 235.307 195.146 233.802C194.889 232.298 195.104 230.998 195.785 229.903C199.445 224.022 203.86 221.064 208.777 220.235C213.757 219.394 219.43 220.701 225.596 223.695C237.912 229.675 251.821 242.197 265.496 256.464C275.559 266.963 285.469 278.38 294.501 288.785C297.735 292.51 300.856 296.106 303.831 299.483C309.471 305.885 314.589 311.505 318.951 315.73C320.989 317.704 322.868 319.379 324.562 320.689Z" fill="white" stroke="black"/>
</g>
<defs>
<filter id="filter0_d_132_4193" x="150" y="156.578" width="359.93" height="318.179" filterUnits="userSpaceOnUse" color-interpolation-filters="sRGB">
<feFlood flood-opacity="0" result="BackgroundImageFix"/>
<feColorMatrix in="SourceAlpha" type="matrix" values="0 0 0 0 0 0 0 0 0 0 0 0 0 0 0 0 0 0 127 0" result="hardAlpha"/>
<feOffset dy="4"/>
<feGaussianBlur stdDeviation="8"/>
<feComposite in2="hardAlpha" operator="out"/>
<feColorMatrix type="matrix" values="0 0 0 0 0 0 0 0 0 0 0 0 0 0 0 0 0 0 0.5 0"/>
<feBlend mode="normal" in2="BackgroundImageFix" result="effect1_dropShadow_132_4193"/>
<feBlend mode="normal" in="SourceGraphic" in2="effect1_dropShadow_132_4193" result="shape"/>
</filter>
<filter id="filter1_d_132_4193" x="0.486328" y="0.142578" width="758.836" height="568.316" filterUnits="userSpaceOnUse" color-interpolation-filters="sRGB">
<feFlood flood-opacity="0" result="BackgroundImageFix"/>
<feColorMatrix in="SourceAlpha" type="matrix" values="0 0 0 0 0 0 0 0 0 0 0 0 0 0 0 0 0 0 127 0" result="hardAlpha"/>
<feOffset dx="6" dy="6"/>
<feGaussianBlur stdDeviation="100"/>
<feComposite in2="hardAlpha" operator="out"/>
<feColorMatrix type="matrix" values="0 0 0 0 0.00109049 0 0 0 0 0.00109049 0 0 0 0 0.00109049 0 0 0 0.6 0"/>
<feBlend mode="normal" in2="BackgroundImageFix" result="effect1_dropShadow_132_4193"/>
<feBlend mode="normal" in="SourceGraphic" in2="effect1_dropShadow_132_4193" result="shape"/>
</filter>
</defs>
</svg>
