<svg width="350" height="191" viewBox="0 0 350 191" fill="none" xmlns="http://www.w3.org/2000/svg">
<path d="M52.9691 153.13C52.412 152.4 51.6056 151.847 50.55 151.472C49.5237 151.076 48.3068 150.878 46.8994 150.878C44.4656 150.878 42.5157 151.451 41.0496 152.598C39.5834 153.724 38.8504 155.235 38.8504 157.132C38.8504 159.155 39.6128 160.739 41.1375 161.886C42.6916 163.012 44.8175 163.574 47.5151 163.574C49.3624 163.574 50.9165 163.241 52.1774 162.574C53.4676 161.907 54.4059 160.948 54.9923 159.697H45.4479V155.756H61.8098V160.729C61.2526 162.063 60.2997 163.303 58.9508 164.45C57.6313 165.597 55.9453 166.524 53.8927 167.233C51.8402 167.942 49.5237 168.296 46.9433 168.296C43.8938 168.296 41.1669 167.827 38.7624 166.889C36.3873 165.93 34.5253 164.606 33.1765 162.918C31.857 161.229 31.1973 159.301 31.1973 157.132C31.1973 154.964 31.857 153.036 33.1765 151.347C34.5253 149.638 36.3873 148.314 38.7624 147.376C41.1375 146.417 43.8498 145.937 46.8994 145.937C50.594 145.937 53.7021 146.573 56.2239 147.845C58.7749 149.116 60.4609 150.878 61.282 153.13H52.9691Z" fill="#D7D7D7"/>
<path d="M73.497 153.599C74.3767 152.64 75.4762 151.889 76.7958 151.347C78.1153 150.784 79.5814 150.503 81.1941 150.503V156.163H79.1269C77.2503 156.163 75.8428 156.455 74.9045 157.039C73.9661 157.601 73.497 158.602 73.497 160.041V168.14H65.9758V150.69H73.497V153.599Z" fill="#D7D7D7"/>
<path d="M83.2936 159.384C83.2936 157.591 83.7628 156.017 84.7011 154.662C85.6687 153.307 86.9736 152.264 88.6156 151.535C90.2577 150.805 92.0903 150.44 94.1136 150.44C95.8436 150.44 97.3537 150.69 98.6438 151.191C99.9633 151.691 100.975 152.348 101.679 153.161V150.69H109.2V168.14H101.679V165.67C100.946 166.483 99.9194 167.139 98.5999 167.64C97.3097 168.14 95.7996 168.39 94.0696 168.39C92.0757 168.39 90.2577 168.025 88.6156 167.296C86.9736 166.545 85.6687 165.492 84.7011 164.137C83.7628 162.761 83.2936 161.177 83.2936 159.384ZM101.679 159.415C101.679 158.081 101.151 157.028 100.095 156.257C99.069 155.485 97.8082 155.1 96.3127 155.1C94.8173 155.1 93.5418 155.485 92.4862 156.257C91.4599 157.007 90.9467 158.05 90.9467 159.384C90.9467 160.718 91.4599 161.781 92.4862 162.574C93.5418 163.345 94.8173 163.731 96.3127 163.731C97.8082 163.731 99.069 163.345 100.095 162.574C101.151 161.802 101.679 160.75 101.679 159.415Z" fill="#D7D7D7"/>
<path d="M122.162 153.161C122.895 152.348 123.907 151.691 125.197 151.191C126.487 150.69 127.997 150.44 129.727 150.44C131.751 150.44 133.583 150.805 135.225 151.535C136.867 152.264 138.158 153.307 139.096 154.662C140.064 156.017 140.547 157.591 140.547 159.384C140.547 161.177 140.064 162.761 139.096 164.137C138.158 165.492 136.867 166.545 135.225 167.296C133.583 168.025 131.751 168.39 129.727 168.39C128.027 168.39 126.517 168.14 125.197 167.64C123.907 167.139 122.895 166.493 122.162 165.701V176.458H114.641V150.69H122.162V153.161ZM132.894 159.384C132.894 158.05 132.366 157.007 131.311 156.257C130.285 155.485 129.009 155.1 127.484 155.1C125.989 155.1 124.713 155.485 123.658 156.257C122.631 157.028 122.118 158.081 122.118 159.415C122.118 160.75 122.631 161.802 123.658 162.574C124.713 163.345 125.989 163.731 127.484 163.731C128.98 163.731 130.255 163.345 131.311 162.574C132.366 161.781 132.894 160.718 132.894 159.384Z" fill="#D7D7D7"/>
<path d="M159.58 150.503C162.394 150.503 164.652 151.17 166.353 152.504C168.054 153.818 168.904 155.631 168.904 157.945V168.14H161.427V158.665C161.427 157.497 161.002 156.59 160.151 155.944C159.301 155.298 158.157 154.975 156.721 154.975C155.284 154.975 154.14 155.298 153.29 155.944C152.44 156.59 152.014 157.497 152.014 158.665V168.14H144.493L143.168 136.892H152.014V153.036C152.777 152.264 153.818 151.649 155.137 151.191C156.457 150.732 157.937 150.503 159.58 150.503Z" fill="#D7D7D7"/>
<path d="M197.266 159.134C197.266 159.634 197.222 160.155 197.134 160.697H180.112C180.23 161.781 180.713 162.615 181.564 163.199C182.443 163.762 183.514 164.044 184.774 164.044C186.651 164.044 187.956 163.481 188.689 162.355H196.694C196.283 163.501 195.536 164.533 194.451 165.451C193.395 166.368 192.061 167.087 190.448 167.608C188.836 168.13 187.032 168.39 185.038 168.39C182.634 168.39 180.493 168.025 178.617 167.296C176.74 166.566 175.274 165.524 174.218 164.169C173.163 162.813 172.635 161.229 172.635 159.415C172.635 157.601 173.148 156.017 174.174 154.662C175.23 153.307 176.696 152.264 178.573 151.535C180.449 150.805 182.605 150.44 185.038 150.44C187.413 150.44 189.525 150.795 191.372 151.503C193.219 152.212 194.656 153.223 195.682 154.537C196.738 155.85 197.266 157.383 197.266 159.134ZM189.569 157.727C189.569 156.809 189.129 156.08 188.249 155.538C187.369 154.995 186.27 154.724 184.95 154.724C183.69 154.724 182.619 154.985 181.74 155.506C180.889 156.027 180.361 156.768 180.156 157.727H189.569Z" fill="#D7D7D7"/>
<path d="M216.188 150.503C219.062 150.503 221.349 151.17 223.049 152.504C224.779 153.818 225.644 155.631 225.644 157.945V168.14H218.167V158.665C218.167 157.497 217.742 156.59 216.892 155.944C216.041 155.298 214.898 154.975 213.461 154.975C212.024 154.975 210.881 155.298 210.03 155.944C209.18 156.59 208.755 157.497 208.755 158.665V168.14H201.234V150.69H208.755V153.005C209.517 152.233 210.543 151.629 211.834 151.191C213.124 150.732 214.575 150.503 216.188 150.503Z" fill="#D7D7D7"/>
<path d="M254.006 159.134C254.006 159.634 253.962 160.155 253.874 160.697H236.853C236.97 161.781 237.454 162.615 238.304 163.199C239.184 163.762 240.254 164.044 241.515 164.044C243.391 164.044 244.696 163.481 245.429 162.355H253.434C253.024 163.501 252.276 164.533 251.191 165.451C250.136 166.368 248.801 167.087 247.189 167.608C245.576 168.13 243.773 168.39 241.779 168.39C239.374 168.39 237.234 168.025 235.357 167.296C233.481 166.566 232.014 165.524 230.959 164.169C229.903 162.813 229.375 161.229 229.375 159.415C229.375 157.601 229.889 156.017 230.915 154.662C231.97 153.307 233.437 152.264 235.313 151.535C237.19 150.805 239.345 150.44 241.779 150.44C244.154 150.44 246.265 150.795 248.112 151.503C249.96 152.212 251.396 153.223 252.423 154.537C253.478 155.85 254.006 157.383 254.006 159.134ZM246.309 157.727C246.309 156.809 245.869 156.08 244.99 155.538C244.11 154.995 243.01 154.724 241.691 154.724C240.43 154.724 239.36 154.985 238.48 155.506C237.63 156.027 237.102 156.768 236.897 157.727H246.309Z" fill="#D7D7D7"/>
<path d="M165.341 102.931C156.671 113.611 149.842 124.322 146.978 134.495C149.097 110.016 158.322 78.7409 171.896 53.4724C179.63 39.0763 188.756 26.6677 198.748 18.5783C208.735 10.4935 219.542 6.75569 230.693 9.5757C236.305 10.9948 239.009 13.3082 239.733 16.2241C240.47 19.1966 239.22 23.0192 236.327 27.6137C230.56 36.7741 218.613 48.48 205.167 61.4904C204.597 62.0422 204.024 62.5964 203.448 63.1527C190.489 75.6868 176.381 89.3314 165.341 102.931Z" fill="#EAEAEA" fill-opacity="0.6" stroke="black"/>
<path d="M342.613 106.932C343.826 108.958 344.189 110.836 343.848 112.58C343.508 114.321 342.458 115.975 340.745 117.554C337.297 120.734 331.222 123.554 323.189 126.017C307.151 130.933 283.664 134.32 258.924 136.465C234.196 138.609 208.263 139.509 187.357 139.466C176.904 139.444 167.713 139.187 160.561 138.732C157.079 138.511 154.085 138.243 151.668 137.934C153.696 137.704 156.071 137.266 158.741 136.656C164.837 135.265 172.539 132.968 181.307 130.158C187.784 128.082 194.842 125.728 202.278 123.248C215.005 119.002 228.838 114.388 242.747 110.175C264.776 103.503 286.908 97.8651 304.979 96.3292C323.081 94.7908 336.892 97.382 342.613 106.932ZM140.911 134.61C135.443 132.006 127.44 127.676 118.141 122.24C105.216 114.686 89.8301 105.022 75.3578 94.9579C60.8822 84.8918 47.3357 74.4362 38.0803 65.2985C33.4508 60.7279 29.9123 56.5037 27.8639 52.8359C25.8007 49.1416 25.316 46.1298 26.5387 43.9207C29.7992 38.03 33.7295 35.0789 38.0825 34.253C42.4852 33.4177 47.5093 34.7143 52.9872 37.7046C63.93 43.6781 76.2961 56.1916 88.4598 70.4599C97.4099 80.9585 106.224 92.3737 114.257 102.779C117.134 106.504 119.91 110.1 122.557 113.477C127.573 119.879 132.126 125.501 136.008 129.728C137.785 131.663 139.426 133.311 140.911 134.61Z" fill="#EAEAEA" fill-opacity="0.68" stroke="black"/>
</svg>
