<svg width="223" height="137" viewBox="0 0 223 137" fill="none" xmlns="http://www.w3.org/2000/svg">
<mask id="path-1-inside-1_194_2" fill="white">
<path d="M21.7718 113.566C21.2147 112.836 20.4083 112.284 19.3527 111.908C18.3264 111.512 17.1096 111.314 15.7021 111.314C13.2683 111.314 11.3184 111.888 9.8523 113.034C8.38618 114.16 7.65312 115.671 7.65312 117.569C7.65312 119.591 8.4155 121.175 9.94026 122.322C11.4943 123.448 13.6202 124.011 16.3179 124.011C18.1652 124.011 19.7193 123.677 20.9801 123.01C22.2703 122.343 23.2086 121.384 23.7951 120.133H14.2506V116.193H30.6125V121.165C30.0554 122.499 29.1024 123.74 27.7536 124.886C26.4341 126.033 24.748 126.961 22.6955 127.669C20.6429 128.378 18.3264 128.733 15.7461 128.733C12.6966 128.733 9.96959 128.264 7.56516 127.325C5.19005 126.366 3.32808 125.043 1.97926 123.354C0.659752 121.665 0 119.737 0 117.569C0 115.4 0.659752 113.472 1.97926 111.783C3.32808 110.074 5.19005 108.75 7.56516 107.812C9.94026 106.853 12.6526 106.373 15.7021 106.373C19.3967 106.373 22.5049 107.009 25.0266 108.281C27.5776 109.553 29.2637 111.314 30.0847 113.566H21.7718Z"/>
<path d="M42.2997 114.035C43.1794 113.076 44.279 112.325 45.5985 111.783C46.918 111.22 48.3841 110.939 49.9968 110.939V116.599H47.9296C46.053 116.599 44.6455 116.891 43.7072 117.475C42.7689 118.038 42.2997 119.038 42.2997 120.477V128.576H34.7786V111.127H42.2997V114.035Z"/>
<path d="M52.0963 119.82C52.0963 118.027 52.5655 116.453 53.5038 115.098C54.4715 113.743 55.7763 112.701 57.4184 111.971C59.0604 111.241 60.8931 110.876 62.9163 110.876C64.6463 110.876 66.1564 111.127 67.4466 111.627C68.7661 112.127 69.7777 112.784 70.4814 113.597V111.127H78.0026V128.576H70.4814V126.106C69.7484 126.919 68.7221 127.576 67.4026 128.076C66.1124 128.576 64.6023 128.827 62.8723 128.827C60.8784 128.827 59.0604 128.462 57.4184 127.732C55.7763 126.981 54.4715 125.929 53.5038 124.574C52.5655 123.198 52.0963 121.613 52.0963 119.82ZM70.4814 119.851C70.4814 118.517 69.9536 117.464 68.898 116.693C67.8718 115.922 66.6109 115.536 65.1155 115.536C63.62 115.536 62.3445 115.922 61.2889 116.693C60.2626 117.444 59.7495 118.486 59.7495 119.82C59.7495 121.154 60.2626 122.218 61.2889 123.01C62.3445 123.781 63.62 124.167 65.1155 124.167C66.6109 124.167 67.8718 123.781 68.898 123.01C69.9536 122.239 70.4814 121.186 70.4814 119.851Z"/>
<path d="M90.965 113.597C91.6981 112.784 92.7097 112.127 93.9999 111.627C95.2901 111.127 96.8002 110.876 98.5302 110.876C100.553 110.876 102.386 111.241 104.028 111.971C105.67 112.701 106.96 113.743 107.899 115.098C108.866 116.453 109.35 118.027 109.35 119.82C109.35 121.613 108.866 123.198 107.899 124.574C106.96 125.929 105.67 126.981 104.028 127.732C102.386 128.462 100.553 128.827 98.5302 128.827C96.8295 128.827 95.3194 128.576 93.9999 128.076C92.7097 127.576 91.6981 126.929 90.965 126.137V136.895H83.4439V111.127H90.965V113.597ZM101.697 119.82C101.697 118.486 101.169 117.444 100.114 116.693C99.0873 115.922 97.8118 115.536 96.287 115.536C94.7916 115.536 93.5161 115.922 92.4605 116.693C91.4342 117.464 90.921 118.517 90.921 119.851C90.921 121.186 91.4342 122.239 92.4605 123.01C93.5161 123.781 94.7916 124.167 96.287 124.167C97.7825 124.167 99.058 123.781 100.114 123.01C101.169 122.218 101.697 121.154 101.697 119.82Z"/>
<path d="M128.382 110.939C131.197 110.939 133.455 111.606 135.156 112.94C136.856 114.254 137.707 116.068 137.707 118.382V128.576H130.23V119.101C130.23 117.933 129.804 117.027 128.954 116.38C128.104 115.734 126.96 115.411 125.523 115.411C124.087 115.411 122.943 115.734 122.093 116.38C121.242 117.027 120.817 117.933 120.817 119.101V128.576H113.296L111.97 97.3285H120.817V113.472C121.579 112.701 122.62 112.086 123.94 111.627C125.259 111.168 126.74 110.939 128.382 110.939Z"/>
<path d="M166.069 119.57C166.069 120.07 166.025 120.592 165.937 121.134H148.915C149.032 122.218 149.516 123.052 150.366 123.635C151.246 124.198 152.316 124.48 153.577 124.48C155.454 124.48 156.759 123.917 157.492 122.791H165.497C165.086 123.938 164.339 124.97 163.254 125.887C162.198 126.804 160.864 127.524 159.251 128.045C157.638 128.566 155.835 128.827 153.841 128.827C151.437 128.827 149.296 128.462 147.42 127.732C145.543 127.002 144.077 125.96 143.021 124.605C141.966 123.25 141.438 121.665 141.438 119.851C141.438 118.038 141.951 116.453 142.977 115.098C144.033 113.743 145.499 112.701 147.376 111.971C149.252 111.241 151.407 110.876 153.841 110.876C156.216 110.876 158.327 111.231 160.175 111.94C162.022 112.649 163.459 113.66 164.485 114.973C165.541 116.286 166.069 117.819 166.069 119.57ZM158.371 118.163C158.371 117.245 157.932 116.516 157.052 115.974C156.172 115.432 155.073 115.161 153.753 115.161C152.492 115.161 151.422 115.421 150.542 115.942C149.692 116.464 149.164 117.204 148.959 118.163H158.371Z"/>
<path d="M184.991 110.939C187.864 110.939 190.151 111.606 191.852 112.94C193.582 114.254 194.447 116.068 194.447 118.382V128.576H186.97V119.101C186.97 117.933 186.545 117.027 185.694 116.38C184.844 115.734 183.701 115.411 182.264 115.411C180.827 115.411 179.683 115.734 178.833 116.38C177.983 117.027 177.557 117.933 177.557 119.101V128.576H170.036V111.127H177.557V113.441C178.32 112.669 179.346 112.065 180.636 111.627C181.927 111.168 183.378 110.939 184.991 110.939Z"/>
<path d="M222.809 119.57C222.809 120.07 222.765 120.592 222.677 121.134H205.655C205.773 122.218 206.256 123.052 207.107 123.635C207.986 124.198 209.057 124.48 210.318 124.48C212.194 124.48 213.499 123.917 214.232 122.791H222.237C221.827 123.938 221.079 124.97 219.994 125.887C218.938 126.804 217.604 127.524 215.991 128.045C214.379 128.566 212.575 128.827 210.582 128.827C208.177 128.827 206.037 128.462 204.16 127.732C202.283 127.002 200.817 125.96 199.762 124.605C198.706 123.25 198.178 121.665 198.178 119.851C198.178 118.038 198.691 116.453 199.718 115.098C200.773 113.743 202.239 112.701 204.116 111.971C205.993 111.241 208.148 110.876 210.582 110.876C212.957 110.876 215.068 111.231 216.915 111.94C218.762 112.649 220.199 113.66 221.225 114.973C222.281 116.286 222.809 117.819 222.809 119.57ZM215.112 118.163C215.112 117.245 214.672 116.516 213.792 115.974C212.913 115.432 211.813 115.161 210.494 115.161C209.233 115.161 208.162 115.421 207.283 115.942C206.432 116.464 205.905 117.204 205.699 118.163H215.112Z"/>
</mask>
<path d="M21.7718 113.566C21.2147 112.836 20.4083 112.284 19.3527 111.908C18.3264 111.512 17.1096 111.314 15.7021 111.314C13.2683 111.314 11.3184 111.888 9.8523 113.034C8.38618 114.16 7.65312 115.671 7.65312 117.569C7.65312 119.591 8.4155 121.175 9.94026 122.322C11.4943 123.448 13.6202 124.011 16.3179 124.011C18.1652 124.011 19.7193 123.677 20.9801 123.01C22.2703 122.343 23.2086 121.384 23.7951 120.133H14.2506V116.193H30.6125V121.165C30.0554 122.499 29.1024 123.74 27.7536 124.886C26.4341 126.033 24.748 126.961 22.6955 127.669C20.6429 128.378 18.3264 128.733 15.7461 128.733C12.6966 128.733 9.96959 128.264 7.56516 127.325C5.19005 126.366 3.32808 125.043 1.97926 123.354C0.659752 121.665 0 119.737 0 117.569C0 115.4 0.659752 113.472 1.97926 111.783C3.32808 110.074 5.19005 108.75 7.56516 107.812C9.94026 106.853 12.6526 106.373 15.7021 106.373C19.3967 106.373 22.5049 107.009 25.0266 108.281C27.5776 109.553 29.2637 111.314 30.0847 113.566H21.7718Z" fill="#D7D7D7"/>
<path d="M42.2997 114.035C43.1794 113.076 44.279 112.325 45.5985 111.783C46.918 111.22 48.3841 110.939 49.9968 110.939V116.599H47.9296C46.053 116.599 44.6455 116.891 43.7072 117.475C42.7689 118.038 42.2997 119.038 42.2997 120.477V128.576H34.7786V111.127H42.2997V114.035Z" fill="#D7D7D7"/>
<path d="M52.0963 119.82C52.0963 118.027 52.5655 116.453 53.5038 115.098C54.4715 113.743 55.7763 112.701 57.4184 111.971C59.0604 111.241 60.8931 110.876 62.9163 110.876C64.6463 110.876 66.1564 111.127 67.4466 111.627C68.7661 112.127 69.7777 112.784 70.4814 113.597V111.127H78.0026V128.576H70.4814V126.106C69.7484 126.919 68.7221 127.576 67.4026 128.076C66.1124 128.576 64.6023 128.827 62.8723 128.827C60.8784 128.827 59.0604 128.462 57.4184 127.732C55.7763 126.981 54.4715 125.929 53.5038 124.574C52.5655 123.198 52.0963 121.613 52.0963 119.82ZM70.4814 119.851C70.4814 118.517 69.9536 117.464 68.898 116.693C67.8718 115.922 66.6109 115.536 65.1155 115.536C63.62 115.536 62.3445 115.922 61.2889 116.693C60.2626 117.444 59.7495 118.486 59.7495 119.82C59.7495 121.154 60.2626 122.218 61.2889 123.01C62.3445 123.781 63.62 124.167 65.1155 124.167C66.6109 124.167 67.8718 123.781 68.898 123.01C69.9536 122.239 70.4814 121.186 70.4814 119.851Z" fill="#D7D7D7"/>
<path d="M90.965 113.597C91.6981 112.784 92.7097 112.127 93.9999 111.627C95.2901 111.127 96.8002 110.876 98.5302 110.876C100.553 110.876 102.386 111.241 104.028 111.971C105.67 112.701 106.96 113.743 107.899 115.098C108.866 116.453 109.35 118.027 109.35 119.82C109.35 121.613 108.866 123.198 107.899 124.574C106.96 125.929 105.67 126.981 104.028 127.732C102.386 128.462 100.553 128.827 98.5302 128.827C96.8295 128.827 95.3194 128.576 93.9999 128.076C92.7097 127.576 91.6981 126.929 90.965 126.137V136.895H83.4439V111.127H90.965V113.597ZM101.697 119.82C101.697 118.486 101.169 117.444 100.114 116.693C99.0873 115.922 97.8118 115.536 96.287 115.536C94.7916 115.536 93.5161 115.922 92.4605 116.693C91.4342 117.464 90.921 118.517 90.921 119.851C90.921 121.186 91.4342 122.239 92.4605 123.01C93.5161 123.781 94.7916 124.167 96.287 124.167C97.7825 124.167 99.058 123.781 100.114 123.01C101.169 122.218 101.697 121.154 101.697 119.82Z" fill="#D7D7D7"/>
<path d="M128.382 110.939C131.197 110.939 133.455 111.606 135.156 112.94C136.856 114.254 137.707 116.068 137.707 118.382V128.576H130.23V119.101C130.23 117.933 129.804 117.027 128.954 116.38C128.104 115.734 126.96 115.411 125.523 115.411C124.087 115.411 122.943 115.734 122.093 116.38C121.242 117.027 120.817 117.933 120.817 119.101V128.576H113.296L111.97 97.3285H120.817V113.472C121.579 112.701 122.62 112.086 123.94 111.627C125.259 111.168 126.74 110.939 128.382 110.939Z" fill="#D7D7D7"/>
<path d="M166.069 119.57C166.069 120.07 166.025 120.592 165.937 121.134H148.915C149.032 122.218 149.516 123.052 150.366 123.635C151.246 124.198 152.316 124.48 153.577 124.48C155.454 124.48 156.759 123.917 157.492 122.791H165.497C165.086 123.938 164.339 124.97 163.254 125.887C162.198 126.804 160.864 127.524 159.251 128.045C157.638 128.566 155.835 128.827 153.841 128.827C151.437 128.827 149.296 128.462 147.42 127.732C145.543 127.002 144.077 125.96 143.021 124.605C141.966 123.25 141.438 121.665 141.438 119.851C141.438 118.038 141.951 116.453 142.977 115.098C144.033 113.743 145.499 112.701 147.376 111.971C149.252 111.241 151.407 110.876 153.841 110.876C156.216 110.876 158.327 111.231 160.175 111.94C162.022 112.649 163.459 113.66 164.485 114.973C165.541 116.286 166.069 117.819 166.069 119.57ZM158.371 118.163C158.371 117.245 157.932 116.516 157.052 115.974C156.172 115.432 155.073 115.161 153.753 115.161C152.492 115.161 151.422 115.421 150.542 115.942C149.692 116.464 149.164 117.204 148.959 118.163H158.371Z" fill="#D7D7D7"/>
<path d="M184.991 110.939C187.864 110.939 190.151 111.606 191.852 112.94C193.582 114.254 194.447 116.068 194.447 118.382V128.576H186.97V119.101C186.97 117.933 186.545 117.027 185.694 116.38C184.844 115.734 183.701 115.411 182.264 115.411C180.827 115.411 179.683 115.734 178.833 116.38C177.983 117.027 177.557 117.933 177.557 119.101V128.576H170.036V111.127H177.557V113.441C178.32 112.669 179.346 112.065 180.636 111.627C181.927 111.168 183.378 110.939 184.991 110.939Z" fill="#D7D7D7"/>
<path d="M222.809 119.57C222.809 120.07 222.765 120.592 222.677 121.134H205.655C205.773 122.218 206.256 123.052 207.107 123.635C207.986 124.198 209.057 124.48 210.318 124.48C212.194 124.48 213.499 123.917 214.232 122.791H222.237C221.827 123.938 221.079 124.97 219.994 125.887C218.938 126.804 217.604 127.524 215.991 128.045C214.379 128.566 212.575 128.827 210.582 128.827C208.177 128.827 206.037 128.462 204.16 127.732C202.283 127.002 200.817 125.96 199.762 124.605C198.706 123.25 198.178 121.665 198.178 119.851C198.178 118.038 198.691 116.453 199.718 115.098C200.773 113.743 202.239 112.701 204.116 111.971C205.993 111.241 208.148 110.876 210.582 110.876C212.957 110.876 215.068 111.231 216.915 111.94C218.762 112.649 220.199 113.66 221.225 114.973C222.281 116.286 222.809 117.819 222.809 119.57ZM215.112 118.163C215.112 117.245 214.672 116.516 213.792 115.974C212.913 115.432 211.813 115.161 210.494 115.161C209.233 115.161 208.162 115.421 207.283 115.942C206.432 116.464 205.905 117.204 205.699 118.163H215.112Z" fill="#D7D7D7"/>
<path d="M21.7718 113.566C21.2147 112.836 20.4083 112.284 19.3527 111.908C18.3264 111.512 17.1096 111.314 15.7021 111.314C13.2683 111.314 11.3184 111.888 9.8523 113.034C8.38618 114.16 7.65312 115.671 7.65312 117.569C7.65312 119.591 8.4155 121.175 9.94026 122.322C11.4943 123.448 13.6202 124.011 16.3179 124.011C18.1652 124.011 19.7193 123.677 20.9801 123.01C22.2703 122.343 23.2086 121.384 23.7951 120.133H14.2506V116.193H30.6125V121.165C30.0554 122.499 29.1024 123.74 27.7536 124.886C26.4341 126.033 24.748 126.961 22.6955 127.669C20.6429 128.378 18.3264 128.733 15.7461 128.733C12.6966 128.733 9.96959 128.264 7.56516 127.325C5.19005 126.366 3.32808 125.043 1.97926 123.354C0.659752 121.665 0 119.737 0 117.569C0 115.4 0.659752 113.472 1.97926 111.783C3.32808 110.074 5.19005 108.75 7.56516 107.812C9.94026 106.853 12.6526 106.373 15.7021 106.373C19.3967 106.373 22.5049 107.009 25.0266 108.281C27.5776 109.553 29.2637 111.314 30.0847 113.566H21.7718Z" stroke="black" stroke-width="2" mask="url(#path-1-inside-1_194_2)"/>
<path d="M42.2997 114.035C43.1794 113.076 44.279 112.325 45.5985 111.783C46.918 111.22 48.3841 110.939 49.9968 110.939V116.599H47.9296C46.053 116.599 44.6455 116.891 43.7072 117.475C42.7689 118.038 42.2997 119.038 42.2997 120.477V128.576H34.7786V111.127H42.2997V114.035Z" stroke="black" stroke-width="2" mask="url(#path-1-inside-1_194_2)"/>
<path d="M52.0963 119.82C52.0963 118.027 52.5655 116.453 53.5038 115.098C54.4715 113.743 55.7763 112.701 57.4184 111.971C59.0604 111.241 60.8931 110.876 62.9163 110.876C64.6463 110.876 66.1564 111.127 67.4466 111.627C68.7661 112.127 69.7777 112.784 70.4814 113.597V111.127H78.0026V128.576H70.4814V126.106C69.7484 126.919 68.7221 127.576 67.4026 128.076C66.1124 128.576 64.6023 128.827 62.8723 128.827C60.8784 128.827 59.0604 128.462 57.4184 127.732C55.7763 126.981 54.4715 125.929 53.5038 124.574C52.5655 123.198 52.0963 121.613 52.0963 119.82ZM70.4814 119.851C70.4814 118.517 69.9536 117.464 68.898 116.693C67.8718 115.922 66.6109 115.536 65.1155 115.536C63.62 115.536 62.3445 115.922 61.2889 116.693C60.2626 117.444 59.7495 118.486 59.7495 119.82C59.7495 121.154 60.2626 122.218 61.2889 123.01C62.3445 123.781 63.62 124.167 65.1155 124.167C66.6109 124.167 67.8718 123.781 68.898 123.01C69.9536 122.239 70.4814 121.186 70.4814 119.851Z" stroke="black" stroke-width="2" mask="url(#path-1-inside-1_194_2)"/>
<path d="M90.965 113.597C91.6981 112.784 92.7097 112.127 93.9999 111.627C95.2901 111.127 96.8002 110.876 98.5302 110.876C100.553 110.876 102.386 111.241 104.028 111.971C105.67 112.701 106.96 113.743 107.899 115.098C108.866 116.453 109.35 118.027 109.35 119.82C109.35 121.613 108.866 123.198 107.899 124.574C106.96 125.929 105.67 126.981 104.028 127.732C102.386 128.462 100.553 128.827 98.5302 128.827C96.8295 128.827 95.3194 128.576 93.9999 128.076C92.7097 127.576 91.6981 126.929 90.965 126.137V136.895H83.4439V111.127H90.965V113.597ZM101.697 119.82C101.697 118.486 101.169 117.444 100.114 116.693C99.0873 115.922 97.8118 115.536 96.287 115.536C94.7916 115.536 93.5161 115.922 92.4605 116.693C91.4342 117.464 90.921 118.517 90.921 119.851C90.921 121.186 91.4342 122.239 92.4605 123.01C93.5161 123.781 94.7916 124.167 96.287 124.167C97.7825 124.167 99.058 123.781 100.114 123.01C101.169 122.218 101.697 121.154 101.697 119.82Z" stroke="black" stroke-width="2" mask="url(#path-1-inside-1_194_2)"/>
<path d="M128.382 110.939C131.197 110.939 133.455 111.606 135.156 112.94C136.856 114.254 137.707 116.068 137.707 118.382V128.576H130.23V119.101C130.23 117.933 129.804 117.027 128.954 116.38C128.104 115.734 126.96 115.411 125.523 115.411C124.087 115.411 122.943 115.734 122.093 116.38C121.242 117.027 120.817 117.933 120.817 119.101V128.576H113.296L111.97 97.3285H120.817V113.472C121.579 112.701 122.62 112.086 123.94 111.627C125.259 111.168 126.74 110.939 128.382 110.939Z" stroke="black" stroke-width="2" mask="url(#path-1-inside-1_194_2)"/>
<path d="M166.069 119.57C166.069 120.07 166.025 120.592 165.937 121.134H148.915C149.032 122.218 149.516 123.052 150.366 123.635C151.246 124.198 152.316 124.48 153.577 124.48C155.454 124.48 156.759 123.917 157.492 122.791H165.497C165.086 123.938 164.339 124.97 163.254 125.887C162.198 126.804 160.864 127.524 159.251 128.045C157.638 128.566 155.835 128.827 153.841 128.827C151.437 128.827 149.296 128.462 147.42 127.732C145.543 127.002 144.077 125.96 143.021 124.605C141.966 123.25 141.438 121.665 141.438 119.851C141.438 118.038 141.951 116.453 142.977 115.098C144.033 113.743 145.499 112.701 147.376 111.971C149.252 111.241 151.407 110.876 153.841 110.876C156.216 110.876 158.327 111.231 160.175 111.94C162.022 112.649 163.459 113.66 164.485 114.973C165.541 116.286 166.069 117.819 166.069 119.57ZM158.371 118.163C158.371 117.245 157.932 116.516 157.052 115.974C156.172 115.432 155.073 115.161 153.753 115.161C152.492 115.161 151.422 115.421 150.542 115.942C149.692 116.464 149.164 117.204 148.959 118.163H158.371Z" stroke="black" stroke-width="2" mask="url(#path-1-inside-1_194_2)"/>
<path d="M184.991 110.939C187.864 110.939 190.151 111.606 191.852 112.94C193.582 114.254 194.447 116.068 194.447 118.382V128.576H186.97V119.101C186.97 117.933 186.545 117.027 185.694 116.38C184.844 115.734 183.701 115.411 182.264 115.411C180.827 115.411 179.683 115.734 178.833 116.38C177.983 117.027 177.557 117.933 177.557 119.101V128.576H170.036V111.127H177.557V113.441C178.32 112.669 179.346 112.065 180.636 111.627C181.927 111.168 183.378 110.939 184.991 110.939Z" stroke="black" stroke-width="2" mask="url(#path-1-inside-1_194_2)"/>
<path d="M222.809 119.57C222.809 120.07 222.765 120.592 222.677 121.134H205.655C205.773 122.218 206.256 123.052 207.107 123.635C207.986 124.198 209.057 124.48 210.318 124.48C212.194 124.48 213.499 123.917 214.232 122.791H222.237C221.827 123.938 221.079 124.97 219.994 125.887C218.938 126.804 217.604 127.524 215.991 128.045C214.379 128.566 212.575 128.827 210.582 128.827C208.177 128.827 206.037 128.462 204.16 127.732C202.283 127.002 200.817 125.96 199.762 124.605C198.706 123.25 198.178 121.665 198.178 119.851C198.178 118.038 198.691 116.453 199.718 115.098C200.773 113.743 202.239 112.701 204.116 111.971C205.993 111.241 208.148 110.876 210.582 110.876C212.957 110.876 215.068 111.231 216.915 111.94C218.762 112.649 220.199 113.66 221.225 114.973C222.281 116.286 222.809 117.819 222.809 119.57ZM215.112 118.163C215.112 117.245 214.672 116.516 213.792 115.974C212.913 115.432 211.813 115.161 210.494 115.161C209.233 115.161 208.162 115.421 207.283 115.942C206.432 116.464 205.905 117.204 205.699 118.163H215.112Z" stroke="black" stroke-width="2" mask="url(#path-1-inside-1_194_2)"/>
<path d="M118.032 88.6221C117.529 81.5214 116.608 74.1322 115.557 66.7896C114.932 62.4239 114.261 58.0788 113.604 53.8187C112.561 47.0637 111.551 40.5228 110.809 34.4532C109.598 24.5505 109.112 16.0023 110.337 9.94303C110.949 6.91798 111.978 4.56655 113.506 2.97458C115.02 1.39809 117.066 0.521859 119.824 0.519773C122.844 0.517487 125.022 1.39885 126.571 2.96958C128.132 4.55292 129.11 6.89308 129.604 9.91117C130.595 15.9614 129.61 24.5049 127.821 34.4131C126.928 39.3572 125.838 44.6226 124.704 50.0658C124.629 50.4213 124.555 50.7775 124.481 51.1345C123.416 56.241 122.321 61.493 121.321 66.7639C119.927 74.114 118.717 81.5122 118.032 88.6221Z" fill="#EAEAEA" fill-opacity="0.6" stroke="black"/>
<path d="M205.885 53.352C207.453 55.4958 207.515 57.717 206.453 59.9947C205.373 62.3124 203.099 64.7495 199.872 67.2354C193.423 72.2026 183.401 77.1863 172.442 81.6287C161.497 86.0657 149.669 89.9426 139.645 92.7097C134.633 94.0931 130.076 95.1978 126.31 95.9561C125.033 96.2134 123.85 96.43 122.773 96.6041C123.592 96.2186 124.451 95.7674 125.343 95.2611C128.446 93.5012 132.051 91.0195 135.978 88.1238C139.908 85.2265 144.178 81.9012 148.61 78.449L148.69 78.3866C153.1 74.9515 157.671 71.391 162.241 67.9892C171.448 61.1356 180.599 54.9675 188.361 51.7823C192.238 50.1913 195.727 49.3623 198.686 49.5378C201.627 49.7122 204.076 50.8807 205.885 53.352ZM111.944 96.4493C111.103 96.2999 110.205 96.1265 109.254 95.93C105.507 95.1557 100.979 94.0289 95.9985 92.6211C86.0375 89.8053 74.2823 85.8694 63.3736 81.3906C52.4587 76.9093 42.417 71.895 35.8643 66.9282C32.5845 64.4421 30.211 61.9915 29.0251 59.654C27.8434 57.3248 27.8719 55.1852 29.2318 53.2261C30.7763 51.001 32.9823 49.945 35.8155 49.8399C38.6821 49.7335 42.135 50.6099 46.0123 52.2365C53.7572 55.4856 63.0046 61.6426 72.3307 68.4325C76.7146 71.6243 81.1269 74.9645 85.401 78.2001C90.1871 81.8233 94.7999 85.3153 99.0058 88.321C102.997 91.1733 106.65 93.6091 109.78 95.3332C110.531 95.7467 111.253 96.1202 111.944 96.4493Z" fill="#EAEAEA" fill-opacity="0.68" stroke="black"/>
</svg>
