<svg width="60" height="60" viewBox="0 0 60 60" fill="none" xmlns="http://www.w3.org/2000/svg">
<path d="M51.125 51.1199C51.125 51.1227 51.1228 51.1249 51.12 51.1249H46.68C44.2251 51.1249 42.235 49.1348 42.235 46.6799V37.1999C42.235 33.8799 42.175 29.605 37.61 29.605C32.98 29.605 32.27 33.225 32.27 36.9549V46.6799C32.27 49.1348 30.2799 51.1249 27.825 51.1249V51.1249C25.3701 51.1249 23.38 49.1348 23.38 46.6799V26.7575C23.38 24.4006 25.2906 22.49 27.6475 22.49H29.9575C31.0386 22.49 31.915 23.3664 31.915 24.4475V26.3287C31.915 26.3708 31.9492 26.405 31.9913 26.405V26.405C32.0184 26.405 32.0434 26.3905 32.0572 26.3672C33.8025 23.4199 37.0296 21.6555 40.455 21.78C49.465 21.78 51.13 27.705 51.13 35.4199L51.125 51.1199V51.1199ZM13.35 18.575C11.9844 18.5684 10.6765 18.0234 9.71034 17.0582C8.74422 16.093 8.19789 14.7856 8.19 13.42C8.19 10.59 10.52 8.26004 13.35 8.26004C16.18 8.26004 18.505 10.59 18.51 13.42C18.51 16.25 16.18 18.575 13.35 18.575ZM17.795 46.6749C17.795 49.1326 15.8027 51.1249 13.345 51.1249V51.1249C10.8873 51.1249 8.895 49.1326 8.895 46.6749V26.94C8.895 24.4823 10.8873 22.49 13.345 22.49V22.49C15.8027 22.49 17.795 24.4823 17.795 26.94V46.6749ZM55.5525 0.00255584C55.5509 0.000966858 55.5487 7.43159e-05 55.5465 7.43159e-05H4.425C3.26575 -0.0066588 2.15069 0.444371 1.32212 1.25515C0.493545 2.06593 0.0184233 3.17094 0 4.33006V55.6699C0.0184233 56.829 0.493545 57.934 1.32212 58.7448C2.15069 59.5556 3.26575 60.0066 4.425 59.9999H55.555C56.7169 60.0093 57.8356 59.5597 58.6679 58.7489C59.5003 57.9382 59.979 56.8316 60 55.6699V4.32506C59.979 3.1642 59.4999 2.05871 58.6673 1.24951C57.8356 0.441145 56.7183 -0.00607461 55.5586 0.00503831C55.5563 0.00506015 55.5541 0.00416643 55.5525 0.00255584V0.00255584Z" fill="#0A66C2"/>
</svg>
