<svg width="50" height="50" viewBox="0 0 50 50" fill="none" xmlns="http://www.w3.org/2000/svg">
<path d="M25 50C38.8071 50 50 38.8071 50 25C50 11.1929 38.8071 0 25 0C11.1929 0 0 11.1929 0 25C0 38.8071 11.1929 50 25 50Z" fill="black"/>
<path d="M35.5 38H15.5C14.837 38 14.2011 37.7366 13.7322 37.2678C13.2634 36.7989 13 36.163 13 35.5C13 34.837 13.2634 34.2011 13.7322 33.7322C14.2011 33.2634 14.837 33 15.5 33H35.5C36.163 33 36.7989 33.2634 37.2678 33.7322C37.7366 34.2011 38 34.837 38 35.5C38 36.163 37.7366 36.7989 37.2678 37.2678C36.7989 37.7366 36.163 38 35.5 38ZM35.5 28H15.5C14.837 28 14.2011 27.7366 13.7322 27.2678C13.2634 26.7989 13 26.163 13 25.5C13 24.837 13.2634 24.2011 13.7322 23.7322C14.2011 23.2634 14.837 23 15.5 23H35.5C36.163 23 36.7989 23.2634 37.2678 23.7322C37.7366 24.2011 38 24.837 38 25.5C38 26.163 37.7366 26.7989 37.2678 27.2678C36.7989 27.7366 36.163 28 35.5 28ZM35.5 18H15.5C14.837 18 14.2011 17.7366 13.7322 17.2678C13.2634 16.7989 13 16.163 13 15.5C13 14.837 13.2634 14.2011 13.7322 13.7322C14.2011 13.2634 14.837 13 15.5 13H35.5C36.163 13 36.7989 13.2634 37.2678 13.7322C37.7366 14.2011 38 14.837 38 15.5C38 16.163 37.7366 16.7989 37.2678 17.2678C36.7989 17.7366 36.163 18 35.5 18Z" fill="#00A2C6"/>
</svg>
