<svg width="60" height="60" viewBox="0 0 60 60" fill="none" xmlns="http://www.w3.org/2000/svg">
<path d="M55 0H5C2.23858 0 0 2.23858 0 5V55C0 57.7614 2.23858 60 5 60H55C57.7614 60 60 57.7614 60 55V5C60 2.23858 57.7614 0 55 0Z" fill="#D40001"/>
<path fill-rule="evenodd" clip-rule="evenodd" d="M41.7949 24.821C41.7949 22.0596 39.5563 19.821 36.7949 19.821H35.5128C32.7514 19.821 30.5128 22.0596 30.5128 24.821V45.6235C30.5128 48.385 28.2742 50.6235 25.5128 50.6235H15C12.2386 50.6235 10 48.385 10 45.6235V12.5C10 9.73858 12.2386 7.5 15 7.5H30.5128H45C47.7614 7.5 50 9.73858 50 12.5V19.821V46.521C50 48.7868 48.1632 50.6235 45.8974 50.6235V50.6235C43.6317 50.6235 41.7949 48.7868 41.7949 46.521V24.821Z" fill="#EAE3E3"/>
</svg>
